# xmcd
#
# Track frame offsets:
#	150
#	41126
#	98117
#	141758
#	182264
#	208807
#
# Disc length: 3195 seconds
#
# Revision: 1
# Processed by: cddbd v1.5.2PL0 Copyright (c) Steve Scherf et al.
# Submitted via: audiograbber 1.83.01
#
DISCID=4f0c7906
DTITLE=Grateful Dead - 73-07-01A Universal Amphitheatre. Universal City CA
DYEAR=1900
DGENRE=
TTITLE0=Truckin'
TTITLE1=Drums > The Other One
TTITLE2=Jam
TTITLE3=Wharf Rat
TTITLE4=Me and Bobby McGee
TTITLE5=Casey Jones
EXTD=
EXTT0=
EXTT1=
EXTT2=
EXTT3=
EXTT4=
EXTT5=
PLAYORDER=
